<svg width="137" height="47" viewBox="0 0 137 47" fill="none" xmlns="http://www.w3.org/2000/svg">
<path d="M2.44787 36V10.0378H13.7229C15.3548 10.0378 16.7766 10.3221 17.9881 10.8908C19.1997 11.4595 20.1393 12.2631 20.8069 13.3016C21.4745 14.3401 21.8083 15.564 21.8083 16.9734V17.4184C21.8083 18.9762 21.4374 20.2372 20.6956 21.2015C19.9538 22.1658 19.039 22.8705 17.951 23.3156V23.9832C18.9401 24.0326 19.7066 24.3788 20.2506 25.0217C20.7945 25.6398 21.0665 26.4681 21.0665 27.5066V36H16.1708V28.2113C16.1708 27.6179 16.0101 27.1357 15.6886 26.7649C15.3919 26.394 14.885 26.2085 14.168 26.2085H7.34361V36H2.44787ZM7.34361 21.7579H13.2037C14.3658 21.7579 15.2683 21.4488 15.9111 20.8306C16.5787 20.1878 16.9125 19.3471 16.9125 18.3086V17.9377C16.9125 16.8992 16.5911 16.0709 15.9482 15.4527C15.3054 14.8099 14.3905 14.4884 13.2037 14.4884H7.34361V21.7579ZM34.4124 36.5192C32.5827 36.5192 30.9632 36.136 29.5538 35.3695C28.1691 34.5783 27.0812 33.478 26.29 32.0686C25.5235 30.6345 25.1402 28.9531 25.1402 27.0245V26.5794C25.1402 24.6508 25.5235 22.9818 26.29 21.5724C27.0565 20.1383 28.132 19.038 29.5167 18.2715C30.9013 17.4803 32.5085 17.0846 34.3383 17.0846C36.1432 17.0846 37.7133 17.4926 39.0485 18.3086C40.3838 19.0998 41.4222 20.2125 42.164 21.6466C42.9058 23.056 43.2767 24.7002 43.2767 26.5794V28.1742H29.8876C29.937 29.4353 30.4068 30.4614 31.297 31.2526C32.1871 32.0438 33.275 32.4395 34.5608 32.4395C35.8713 32.4395 36.8356 32.1551 37.4537 31.5864C38.0719 31.0177 38.5417 30.3872 38.8631 29.6949L42.6833 31.6977C42.3371 32.3406 41.8302 33.0452 41.1626 33.8118C40.5197 34.5535 39.6543 35.1964 38.5664 35.7404C37.4785 36.2596 36.0938 36.5192 34.4124 36.5192ZM29.9247 24.6879H38.5293C38.4304 23.6247 37.9977 22.7716 37.2312 22.1287C36.4894 21.4859 35.5127 21.1644 34.3012 21.1644C33.0401 21.1644 32.0387 21.4859 31.297 22.1287C30.5552 22.7716 30.0978 23.6247 29.9247 24.6879ZM47.4362 43.4178V17.6039H52.0352V19.8292H52.7028C53.1231 19.1122 53.7784 18.4817 54.6685 17.9377C55.5586 17.369 56.832 17.0846 58.4887 17.0846C59.9722 17.0846 61.3445 17.4555 62.6055 18.1973C63.8665 18.9144 64.8803 19.9776 65.6468 21.387C66.4133 22.7963 66.7966 24.5024 66.7966 26.5052V27.0987C66.7966 29.1015 66.4133 30.8076 65.6468 32.2169C64.8803 33.6263 63.8665 34.7019 62.6055 35.4437C61.3445 36.1607 59.9722 36.5192 58.4887 36.5192C57.376 36.5192 56.4364 36.3833 55.6699 36.1113C54.9281 35.864 54.3223 35.5426 53.8525 35.147C53.4075 34.7266 53.0489 34.3063 52.777 33.8859H52.1094V43.4178H47.4362ZM57.0793 32.4395C58.5381 32.4395 59.7373 31.982 60.6769 31.0672C61.6412 30.1276 62.1234 28.7677 62.1234 26.9874V26.6165C62.1234 24.8362 61.6412 23.4887 60.6769 22.5738C59.7126 21.6342 58.5134 21.1644 57.0793 21.1644C55.6452 21.1644 54.446 21.6342 53.4816 22.5738C52.5173 23.4887 52.0352 24.8362 52.0352 26.6165V26.9874C52.0352 28.7677 52.5173 30.1276 53.4816 31.0672C54.446 31.982 55.6452 32.4395 57.0793 32.4395ZM71.0876 36V10.0378H75.7608V36H71.0876ZM86.651 36.5192C85.3405 36.5192 84.1661 36.2967 83.1276 35.8516C82.0891 35.3819 81.2608 34.7143 80.6426 33.8488C80.0492 32.9587 79.7525 31.8831 79.7525 30.6221C79.7525 29.3611 80.0492 28.3102 80.6426 27.4695C81.2608 26.6041 82.1014 25.9613 83.1647 25.5409C84.2526 25.0959 85.4889 24.8733 86.8736 24.8733H91.9176V23.8348C91.9176 22.9694 91.6457 22.2647 91.1017 21.7208C90.5577 21.1521 89.6923 20.8677 88.5055 20.8677C87.3433 20.8677 86.4779 21.1397 85.9092 21.6837C85.3405 22.2029 84.9697 22.8829 84.7966 23.7236L80.4943 22.2771C80.791 21.3375 81.2608 20.4845 81.9036 19.718C82.5712 18.9267 83.449 18.2962 84.537 17.8264C85.6496 17.3319 86.9972 17.0846 88.5796 17.0846C91.0028 17.0846 92.919 17.6904 94.3284 18.902C95.7378 20.1136 96.4425 21.8691 96.4425 24.1686V31.0301C96.4425 31.7719 96.7887 32.1428 97.481 32.1428H98.9645V36H95.8491C94.9342 36 94.1801 35.7775 93.5866 35.3324C92.9932 34.8873 92.6965 34.2939 92.6965 33.5521V33.515H91.9918C91.8929 33.8118 91.6704 34.2074 91.3242 34.7019C90.9781 35.1717 90.4341 35.592 89.6923 35.9629C88.9505 36.3338 87.9368 36.5192 86.651 36.5192ZM87.467 32.7362C88.7775 32.7362 89.8407 32.3776 90.6566 31.6606C91.4973 30.9188 91.9176 29.9421 91.9176 28.7306V28.3597H87.2074C86.3419 28.3597 85.662 28.5451 85.1675 28.916C84.6729 29.2869 84.4257 29.8061 84.4257 30.4738C84.4257 31.1414 84.6853 31.6853 85.2046 32.1057C85.7238 32.526 86.4779 32.7362 87.467 32.7362ZM108.088 36C106.877 36 105.888 35.6291 105.121 34.8873C104.379 34.1208 104.008 33.1071 104.008 31.846V21.4611H99.4093V17.6039H104.008V11.8922H108.682V17.6039H113.726V21.4611H108.682V31.0301C108.682 31.7719 109.028 32.1428 109.72 32.1428H113.281V36H108.088ZM125.686 36.5192C123.856 36.5192 122.237 36.136 120.827 35.3695C119.443 34.5783 118.355 33.478 117.563 32.0686C116.797 30.6345 116.414 28.9531 116.414 27.0245V26.5794C116.414 24.6508 116.797 22.9818 117.563 21.5724C118.33 20.1383 119.406 19.038 120.79 18.2715C122.175 17.4803 123.782 17.0846 125.612 17.0846C127.417 17.0846 128.987 17.4926 130.322 18.3086C131.657 19.0998 132.696 20.2125 133.438 21.6466C134.179 23.056 134.55 24.7002 134.55 26.5794V28.1742H121.161C121.211 29.4353 121.68 30.4614 122.57 31.2526C123.461 32.0438 124.549 32.4395 125.834 32.4395C127.145 32.4395 128.109 32.1551 128.727 31.5864C129.345 31.0177 129.815 30.3872 130.137 29.6949L133.957 31.6977C133.611 32.3406 133.104 33.0452 132.436 33.8118C131.793 34.5535 130.928 35.1964 129.84 35.7404C128.752 36.2596 127.367 36.5192 125.686 36.5192ZM121.198 24.6879H129.803C129.704 23.6247 129.271 22.7716 128.505 22.1287C127.763 21.4859 126.786 21.1644 125.575 21.1644C124.314 21.1644 123.312 21.4859 122.57 22.1287C121.829 22.7716 121.371 23.6247 121.198 24.6879Z" fill="black"/>
<circle cx="57" cy="27" r="6" fill="#57D239"/>
</svg>
